<svg width="13" height="13" viewBox="0 0 13 13" fill="none" xmlns="http://www.w3.org/2000/svg">
<path fill-rule="evenodd" clip-rule="evenodd" d="M6.46102 1.17928L5.09458 4.01729L4.84932 4.51949L1.20546 5.05672L3.84492 7.69618L3.76317 8.22174L3.22593 11.3751L6.46102 9.64658L9.69612 11.3751L9.15888 8.22174L9.07713 7.69618L11.7166 5.05672L8.06105 4.51949L6.46102 1.17928ZM6.46111 0.466797C6.6324 0.466797 6.78812 0.50962 6.92827 0.595266C7.06842 0.680913 7.17353 0.797702 7.24361 0.945637L8.59837 3.76028L11.7167 4.21577C11.8724 4.23912 12.0125 4.30141 12.1371 4.40263C12.2617 4.50385 12.3512 4.63232 12.4057 4.78804C12.4525 4.93597 12.4583 5.08585 12.4233 5.23768C12.3882 5.38951 12.3123 5.52382 12.1955 5.64061L9.9181 7.91802L10.4437 11.083C10.4748 11.2388 10.4573 11.3906 10.3911 11.5385C10.3249 11.6865 10.2257 11.8071 10.0933 11.9006C10.0154 11.9551 9.93368 11.994 9.84803 12.0174C9.76238 12.0407 9.67674 12.0524 9.59109 12.0524C9.52102 12.0524 9.45094 12.0446 9.38087 12.029C9.31079 12.0135 9.24072 11.9862 9.17065 11.9473L6.46111 10.4874L3.7399 11.9473C3.67761 11.9862 3.61143 12.0135 3.54135 12.029C3.47128 12.0446 3.4012 12.0524 3.33113 12.0524C3.2377 12.0524 3.15011 12.0407 3.06835 12.0174C2.9866 11.994 2.90679 11.9551 2.82893 11.9006C2.69657 11.8071 2.5973 11.6865 2.53112 11.5385C2.46493 11.3906 2.44742 11.2388 2.47856 11.083L3.00412 7.91802L0.726706 5.64061C0.609915 5.52382 0.534002 5.38951 0.498964 5.23768C0.463927 5.08585 0.469767 4.93597 0.516483 4.78804C0.570985 4.6401 0.660524 4.51358 0.785101 4.40847C0.909678 4.30336 1.04982 4.23912 1.20555 4.21577L4.32385 3.76028L5.67862 0.945637C5.74869 0.797702 5.8538 0.680913 5.99395 0.595266C6.1341 0.50962 6.28982 0.466797 6.46111 0.466797Z" fill="#3B9860"/>
</svg>
